# xmcd
#
# Track frame offsets: 
#        150
#        18938
#        36225
#        57019
#        74665
#        108589
#        133706
#        148201
#
# Disc length: 2167 seconds
#
# Revision: 6
# Processed by: cddbd v1.5.2PL0 Copyright (c) Steve Scherf et al.
# Submitted via: ExactAudioCopyFreeDBPlugin 1.0
#
DISCID=77087508
DTITLE=Blodsrit - Supreme Misanthropy
DYEAR=2001
DGENRE=Black Metal
TTITLE0=I Väntan På Död
TTITLE1=Crossing Spheres Of Fire
TTITLE2=Vid Livets Slut
TTITLE3=Deciple Of Thy Darkened Ways
TTITLE4=The Embrace Of A Shadow
TTITLE5=I Spår Av Jesu Blod
TTITLE6=As Darkness Prevail
TTITLE7=Likbål
EXTD=
EXTT0=
EXTT1=
EXTT2=
EXTT3=
EXTT4=
EXTT5=
EXTT6=
EXTT7=
PLAYORDER=
